<?xml version="1.0" encoding="UTF-8"?><svg xmlns="http://www.w3.org/2000/svg" viewBox="0 0 117.55 132.86"><defs><style>.d{fill:#fff;font-family:BebasNeue, Bebas Neue;font-size:29.71px;}.e{fill:#231f20;}</style></defs><g id="a"/><g id="b"><g id="c"><g><path class="e" d="M116.28,55.7l-14.67-14.67V20.29c0-2.4-1.94-4.35-4.35-4.35h-20.74L61.85,1.27c-1.7-1.7-4.45-1.7-6.14,0l-14.67,14.67H20.29c-2.4,0-4.34,1.95-4.34,4.35v20.75L1.27,55.71c-1.7,1.7-1.7,4.45,0,6.14l14.67,14.67v20.74c0,2.4,1.95,4.35,4.34,4.35h25.66l-7.84,25.75c-.07,.24-.09,.52-.08,.79,.03,.64,.22,1.26,.22,1.26h0c.21,.82,.64,1.56,1.22,2.13,.83,.81,1.96,1.31,3.21,1.31,1.15,0,2.2-.43,3-1.13,.27-.23,.5-.5,.71-.78l.07-.08,26.82-29.26h23.98c2.4,0,4.35-1.95,4.35-4.35v-20.74l14.67-14.67c1.69-1.7,1.69-4.45,0-6.15Z"/><text class="d" transform="translate(21.63 45.91)"><tspan x="0" y="0">CHECK</tspan><tspan x="0" y="24.92">THIS</tspan><tspan x="0" y="49.83">OUT</tspan></text></g></g></g></svg>