<?xml version="1.0" encoding="UTF-8"?><svg xmlns="http://www.w3.org/2000/svg" viewBox="0 0 122.66 138.63"><defs><style>.d{fill:#f4436c;}.e{fill:#ffbf3c;}.f{fill:#101820;}.g{fill:#10cfc9;}</style></defs><g id="a"/><g id="b"><g id="c"><g><g><path class="f" d="M79.07,122.17v1.49c0,1.79-.9,2.81-2.62,2.81s-2.62-1.02-2.62-2.81v-5.82c0-1.79,.9-2.82,2.62-2.82s2.62,1.02,2.62,2.82v1.08h-1.66v-1.2c0-.79-.35-1.1-.91-1.1s-.91,.31-.91,1.1v6.05c0,.8,.35,1.09,.91,1.09s.91-.29,.91-1.09v-1.6h1.66Z"/><path class="f" d="M86.64,126.35h-1.77l-.31-2.03h-2.16l-.3,2.03h-1.62l1.79-11.2h2.58l1.79,11.2Zm-4.01-3.55h1.7l-.85-5.66-.85,5.66Z"/><path class="f" d="M89.82,118.24v8.11h-1.58v-11.2h2.21l1.81,6.7v-6.7h1.57v11.2h-1.8l-2.2-8.11Z"/><path class="f" d="M101.58,126.35h-1.78l-.3-2.03h-2.16l-.3,2.03h-1.62l1.79-11.2h2.57l1.79,11.2Zm-4.01-3.55h1.69l-.85-5.66-.85,5.66Z"/><path class="f" d="M103.19,115.16h2.78c1.76,0,2.63,.98,2.63,2.77v5.66c0,1.79-.86,2.77-2.63,2.77h-2.78v-11.2Zm1.76,1.6v8h.99c.56,0,.9-.29,.9-1.08v-5.82c0-.8-.34-1.09-.9-1.09h-.99Z"/><path class="f" d="M116.2,126.35h-1.78l-.3-2.03h-2.16l-.31,2.03h-1.61l1.79-11.2h2.58l1.79,11.2Zm-4.02-3.55h1.69l-.85-5.66-.85,5.66Z"/></g><g><path class="f" d="M121.33,58.12l-15.31-15.3V21.17c0-2.5-2.03-4.53-4.54-4.53h-21.65L64.54,1.33c-1.77-1.77-4.64-1.77-6.41,0l-15.31,15.31H21.17c-2.5,0-4.53,2.03-4.53,4.53v21.65L1.33,58.13c-1.77,1.77-1.77,4.64,0,6.41l15.31,15.31v21.65c0,2.51,2.03,4.54,4.53,4.54h26.77l-8.18,26.87c-.08,.25-.09,.54-.08,.83,.03,.67,.23,1.31,.23,1.31h0c.22,.86,.67,1.62,1.28,2.23,.86,.84,2.04,1.37,3.35,1.37,1.2,0,2.29-.45,3.13-1.18,.28-.24,.53-.52,.74-.82l.07-.08,27.98-30.53h25.02c2.51,0,4.54-2.03,4.54-4.54v-21.65l15.31-15.31c1.77-1.77,1.77-4.64,0-6.41Z"/><path class="g" d="M97.49,51.38v-13.41h-7.79v7.11h0v7.5c-.06,3.26-2.73,5.89-6.01,5.89s-5.99-2.68-6.01-5.98v-17.34h-7.79v16.22h-5.53v-1.95c0-1.67-.26-3.32-.76-4.94-.51-1.62-1.23-2.97-2.16-4.04-.93-1.12-2.14-2.04-3.62-2.79-1.58-.65-3.25-.95-5.01-.9-1.67,.09-3.06,.44-4.18,1.04-.56,.28-1.07,.6-1.53,.98-.46,.37-.91,.79-1.32,1.25-.65-.65-1.25-1.16-1.81-1.53-.33-.23-.67-.43-1.05-.59-.37-.16-.76-.34-1.18-.52h-.14c-.46-.23-.98-.39-1.53-.49-.28,0-.56,0-.84-.03-.28-.02-.53-.04-.77-.04-.84,0-1.67,.14-2.51,.42-.84,.28-1.58,.58-2.23,.9v-2.92h-8.47v16.15h-7.4v7.94h15.86v-9.4c0-1.81,.39-3.16,1.18-4.04,.74-.84,1.6-1.25,2.58-1.25,.84,0,1.65,.35,2.44,1.04,.7,.74,1.09,1.76,1.18,3.06v13.09h8.15v-12.88c0-1.16,.32-2.18,.98-3.06,.6-.84,1.46-1.25,2.57-1.25,.88,0,1.67,.37,2.37,1.11,.65,.79,.98,1.86,.98,3.2v16.44h8v-6.06h7.53v-.07c2.37,4.18,6.86,7.01,12,7.01,2.12,0,4.13-.49,5.93-1.35v25.25c0,1.18-.28,1.99-.85,2.42-.47,.43-1.12,.64-1.92,.64-.81-.09-1.52-.57-2.13-1.42-.28-.38-.52-.88-.71-1.49-.19-.62-.31-1.32-.35-2.13l-8.03,1.56c.24,1.85,.73,3.44,1.5,4.76,.66,1.32,1.56,2.49,2.7,3.48,1.14,.9,2.32,1.56,3.56,1.99,.66,.19,1.3,.31,1.92,.36,.62,.05,1.26,.05,1.92,0,.66-.05,1.27-.15,1.81-.32,.55-.17,1.15-.39,1.82-.67,1.28-.62,2.39-1.42,3.34-2.42,.95-.95,1.75-2.2,2.42-3.76,.57-1.57,.85-3.3,.85-5.19v-5.01h.05v-23.54h8.34v-8.03h-8.33Z"/><g><path class="e" d="M23.24,69.06l2.72,6.99,2.75-6.99h5.62l-6.27,16.08h-4.17l-6.27-16.08h5.62Z"/><path class="e" d="M33.31,77.11c0-1.16,.22-2.25,.66-3.28,.44-1.03,1.05-1.92,1.81-2.68,.76-.77,1.66-1.37,2.69-1.81,1.03-.44,2.12-.66,3.28-.66s2.25,.22,3.28,.66c1.03,.44,1.93,1.04,2.69,1.81,.76,.76,1.37,1.66,1.81,2.68,.44,1.03,.66,2.12,.66,3.28s-.22,2.25-.66,3.28c-.44,1.03-1.05,1.92-1.81,2.69-.76,.76-1.66,1.37-2.69,1.81-1.03,.44-2.12,.66-3.28,.66s-2.25-.22-3.28-.66c-1.03-.44-1.93-1.04-2.69-1.81-.76-.76-1.37-1.66-1.81-2.69-.44-1.03-.66-2.12-.66-3.28Zm5.06,0c0,.47,.09,.9,.26,1.31,.18,.41,.42,.77,.72,1.07,.3,.31,.66,.55,1.07,.72,.41,.18,.85,.26,1.31,.26s.9-.09,1.31-.26c.41-.18,.77-.42,1.07-.72,.31-.31,.55-.66,.73-1.07,.17-.41,.26-.85,.26-1.31s-.09-.9-.26-1.31c-.18-.41-.42-.77-.73-1.08-.31-.3-.66-.55-1.07-.72-.41-.18-.85-.27-1.31-.27s-.9,.09-1.31,.27c-.41,.17-.77,.42-1.07,.72-.31,.31-.55,.67-.72,1.08-.18,.41-.26,.85-.26,1.31Z"/><path class="e" d="M58.54,77.11c0-1.29,.23-2.45,.67-3.48,.45-1.04,1.06-1.92,1.83-2.66,.77-.74,1.67-1.31,2.7-1.7,1.03-.39,2.12-.59,3.28-.59,.91,0,1.73,.09,2.45,.27,.72,.18,1.33,.38,1.85,.6,.59,.26,1.11,.54,1.54,.84l-2.53,4.46c-.26-.19-.54-.38-.84-.56-.27-.13-.6-.25-.98-.37-.38-.12-.81-.18-1.29-.18s-.96,.09-1.37,.27c-.42,.17-.78,.42-1.1,.72-.31,.31-.56,.67-.74,1.08-.18,.41-.26,.85-.26,1.31s.09,.9,.28,1.31c.18,.41,.44,.77,.76,1.07,.32,.31,.7,.55,1.14,.72,.43,.18,.91,.26,1.42,.26s.97-.06,1.38-.19c.4-.13,.74-.27,1.01-.43,.32-.18,.6-.38,.84-.63l2.53,4.46c-.43,.35-.95,.67-1.54,.94-.52,.23-1.13,.43-1.86,.63-.72,.19-1.55,.29-2.48,.29-1.25,0-2.41-.2-3.47-.61-1.06-.41-1.98-.98-2.75-1.72-.77-.74-1.38-1.63-1.81-2.66-.43-1.04-.65-2.18-.65-3.44Z"/><path class="e" d="M74.36,69.06h9.47v4.22h-4.34v1.78h4.27v4h-4.27v1.86h4.51v4.22h-9.64v-16.08Z"/><g><path class="e" d="M51.57,69.06h5.45v16.08h-5.45v-16.08Z"/><rect class="d" x="52.39" y="88.08" width="3.94" height="3.94" transform="translate(-47.76 64.84) rotate(-45.01)"/></g></g><polygon class="d" points="92.42 28.28 87.56 23.42 83.62 27.36 79.67 23.42 74.81 28.28 79.67 33.14 83.62 29.2 87.56 33.14 92.42 28.28"/></g></g></g></g></svg>